<?xml version="1.0" encoding="UTF-8" standalone="no"?>
<!-- Created with Inkscape (http://www.inkscape.org/) -->

<svg
   xmlns:dc="http://purl.org/dc/elements/1.1/"
   xmlns:cc="http://creativecommons.org/ns#"
   xmlns:rdf="http://www.w3.org/1999/02/22-rdf-syntax-ns#"
   xmlns:svg="http://www.w3.org/2000/svg"
   xmlns="http://www.w3.org/2000/svg"
   xmlns:sodipodi="http://sodipodi.sourceforge.net/DTD/sodipodi-0.dtd"
   xmlns:inkscape="http://www.inkscape.org/namespaces/inkscape"
   width="800mm"
   height="200mm"
   viewBox="0 0 800 200"
   version="1.1"
   id="svg8"
   inkscape:version="0.92.4 (5da689c313, 2019-01-14)"
   sodipodi:docname="LadenLiebeLogo.svg"
   inkscape:export-filename="S:\cygwin64\home\janni\repo\wirvsvirusfrontend\frontend\src\assets\LadenLiebeLogo.png"
   inkscape:export-xdpi="96"
   inkscape:export-ydpi="96">
  <defs
     id="defs2" />
  <sodipodi:namedview
     id="base"
     pagecolor="#ffffff"
     bordercolor="#666666"
     borderopacity="1.0"
     inkscape:pageopacity="0.0"
     inkscape:pageshadow="2"
     inkscape:zoom="0.39111844"
     inkscape:cx="1597.4853"
     inkscape:cy="-89.25358"
     inkscape:document-units="mm"
     inkscape:current-layer="layer2"
     showgrid="false"
     fit-margin-top="0"
     fit-margin-left="0"
     fit-margin-right="0"
     fit-margin-bottom="0"
     inkscape:window-width="1920"
     inkscape:window-height="1017"
     inkscape:window-x="-8"
     inkscape:window-y="-8"
     inkscape:window-maximized="1" />
  <metadata
     id="metadata5">
    <rdf:RDF>
      <cc:Work
         rdf:about="">
        <dc:format>image/svg+xml</dc:format>
        <dc:type
           rdf:resource="http://purl.org/dc/dcmitype/StillImage" />
        <dc:title></dc:title>
      </cc:Work>
    </rdf:RDF>
  </metadata>
  <g
     inkscape:label="Ebene 1"
     inkscape:groupmode="layer"
     id="layer1"
     style="display:inline"
     transform="translate(102.68675,-48.992033)" />
  <g
     inkscape:groupmode="layer"
     id="layer2"
     inkscape:label="Ebene 2"
     style="display:inline"
     transform="translate(102.68675,-48.992033)">
    <path
       style="fill:#000000;fill-opacity:1;stroke-width:0.08466667"
       d="m 487.2558,95.762973 c -0.0176,-0.04656 -0.0245,11.163917 -0.0165,24.912747 l 0.0145,24.99795 h -1.88412 -1.88361 v -6.98561 -6.98563 l -1.96836,0.0527 c -1.08267,0.0292 -2.54006,0.077 -3.23856,0.10646 l -1.2702,0.0537 v 6.87917 6.87916 h -2.17971 -2.18023 l -0.0212,-19.49079 -0.0217,-19.49134 -0.65061,1.52085 c -0.82052,1.91756 -3.16087,7.4122 -3.96513,9.30952 -0.33558,0.79163 -0.67766,1.59191 -0.76016,1.77818 -0.0825,0.18625 -0.51992,1.21512 -0.97255,2.28617 -0.45263,1.07103 -1.21909,2.87071 -1.70326,3.99924 l -0.88056,2.05155 v 2.90835 c 0,1.59959 -0.0254,5.65808 -0.0563,9.01857 l -0.0563,6.1097 h -2.39882 -2.39933 v -4.23539 -4.23592 l -2.09548,0.0455 c -1.15253,0.0249 -3.00025,0.0654 -4.10621,0.0899 l -2.01073,0.0444 -0.004,-7.81347 -0.004,-7.81297 -0.43563,-0.33899 c -0.23958,-0.18626 -0.70676,-0.54797 -1.03818,-0.80409 -0.33142,-0.25612 -1.26707,-0.99574 -2.07946,-1.64331 -2.45534,-1.95721 -3.48557,-2.77576 -3.97443,-3.15691 -0.25611,-0.19968 -0.61455,-0.4869 -0.79634,-0.63872 -0.18179,-0.15182 -0.40079,-0.32626 -0.48679,-0.38706 -0.1513,-0.10745 -0.15658,0.33648 -0.15658,15.38821 v 15.49879 h -1.07952 -1.07952 l 0.0227,-4.46587 0.0222,-4.46639 -1.01854,-0.87179 c -0.59354,-0.50827 -1.05836,-0.84767 -1.11466,-0.81287 -0.0539,0.0331 -0.0736,0.0225 -0.045,-0.0238 0.0481,-0.0779 -0.66796,-0.77444 -1.54978,-1.50844 -0.70129,-0.58373 -1.29925,-1.09596 -2.0283,-1.73736 -0.39788,-0.35007 -0.85658,-0.746 -1.01957,-0.88005 l -0.29611,-0.24391 -0.0424,7.506 -0.0424,7.50652 -8.24859,0.0202 -8.42414,0.0202 0.7632,1.63195 c 0,-0.036 4.26775,-0.0656 8.92442,-0.0656 h 8.46667 v -6.6461 c 0,-3.65549 0.0222,-6.64662 0.0491,-6.64662 0.0269,-10e-6 0.32855,0.25159 0.67025,0.55862 0.34168,0.30702 0.64431,0.5538 0.6723,0.5488 0.028,-0.005 0.16842,0.12466 0.31213,0.28836 0.14373,0.16368 0.31431,0.29765 0.3793,0.29765 0.065,0 0.11834,0.0359 0.11834,0.0796 0,0.0437 0.43816,0.45315 0.97359,0.91002 l 0.97358,0.83096 v 4.88962 4.88911 h 2.58227 2.58279 v -14.64717 c 0,-8.05604 0.0287,-14.64665 0.0636,-14.64665 0.0349,2.4e-4 0.32517,0.2093 0.64493,0.46457 0.31976,0.25525 0.61554,0.44262 0.65784,0.41652 0.0423,-0.0261 0.0665,-0.0112 0.0537,0.0331 -0.0254,0.088 0.25409,0.32169 2.80138,2.34353 l 1.70481,1.3534 v 8.19847 8.19898 l 4.12791,-0.061 4.1274,-0.061 -0.0227,4.20388 -0.0227,4.20336 h 3.93878 3.93826 v -9.55652 c 0,-9.17227 0.007,-9.57134 0.15968,-9.92704 1.70823,-3.96938 2.54849,-6.01924 2.49959,-6.09834 -0.0332,-0.0538 -0.0261,-0.0771 0.016,-0.0512 0.0713,0.0439 0.53547,-1.0008 2.49287,-5.60896 0.42527,-1.00118 0.80811,-1.85646 0.8506,-1.90066 0.0466,-0.0485 0.0775,6.51202 0.0775,16.5313 v 16.6114 h 3.64061 3.6406 v -6.88795 -6.88847 l 0.52038,-0.0543 c 0.28623,-0.0299 1.06742,-0.0548 1.73581,-0.0548 h 1.21492 v 6.94273 6.94272 h 3.38687 3.38687 v -18.3472 c 0,-10.09098 0.0316,-18.31078 0.0703,-18.26658 0.0387,0.0442 0.50037,2.13783 1.0263,4.65243 0.52593,2.5146 1.02722,4.89583 1.11362,5.29166 0.17646,0.8084 0.36444,1.7002 1.64176,7.78919 0.49333,2.35163 1.02477,4.86601 1.18133,5.58778 0.15657,0.72178 0.85035,4.00782 1.54151,7.30239 l 1.25677,5.99033 h 4.63537 4.63538 v -5.15679 -5.15679 l 0.7028,-0.83354 c 0.38645,-0.45824 0.93014,-1.11888 1.20819,-1.46813 1.00998,-1.26861 1.51352,-1.86242 1.57872,-1.86242 0.0366,0 0.0667,3.25739 0.0667,7.23884 v 7.23883 h 3.8964 3.89692 l -0.007,-2.73058 -0.007,-2.73006 0.894,-0.0243 0.89349,-0.0238 v 2.75435 2.75435 h 2.37091 2.3704 v -1.64847 -1.64848 l 2.49752,-0.0238 2.49804,-0.0233 v 1.67225 1.67173 h 7.68635 c 7.53244,0 8.39495,0.003 8.39495,0.1633 l 0.84465,-1.77974 -7.88722,0.004 -7.51375,0.004 v -1.65106 -1.65106 h -3.9796 -3.97909 v 1.65106 1.65106 h -0.88935 -0.88884 v -2.75179 -2.75126 h -2.41329 -2.41277 v 2.75126 2.75176 h -2.39159 -2.3921 l 0.0191,-8.65683 0.0186,-8.65735 -0.17156,0.21135 c -0.0945,0.11641 -0.25547,0.31154 -0.3576,0.43305 -0.10214,0.12154 -0.75723,0.91684 -1.45573,1.76785 -0.6985,0.851 -1.6796,2.04135 -2.18023,2.6448 -0.50064,0.60346 -0.88522,1.13761 -0.85473,1.18701 0.0305,0.0494 0.0169,0.0662 -0.03,0.0372 -0.0469,-0.029 -0.28896,0.20292 -0.53847,0.51573 -0.24952,0.31281 -0.57907,0.712 -0.73225,0.88676 l -0.27854,0.31782 v 4.65604 4.65656 h -3.28404 c -3.06667,0 -3.28492,-0.01 -3.29592,-0.14831 -0.006,-0.0815 -0.26113,-1.32887 -0.56585,-2.77244 -0.30474,-1.44356 -1.35742,-6.43464 -2.3394,-11.09131 -0.98199,-4.65667 -1.91398,-9.07656 -2.07119,-9.82162 -0.1572,-0.74507 -0.76312,-3.62166 -1.34669,-6.39238 -0.58357,-2.77071 -1.31202,-6.21849 -1.6185,-7.66207 -0.3065,-1.44358 -0.64777,-3.06274 -0.75861,-3.59826 -0.59701,-2.8844 -1.75099,-8.351107 -1.77819,-8.424307 z"
       id="path888"
       inkscape:connector-curvature="0"
       sodipodi:nodetypes="ccccccccccccccccccccccsccccccccccccsccscscccccccccccccccccscsccccssccccccsccccccccccccccscccscsccccccscccccscscccccccccccsscccccccccccccccccscccccccccccccccccccccccccccccccccsccccscccc" />
    <path
       style="display:inline;fill:#000000;stroke-width:0.08466667"
       d="m 428.71509,50.106167 c -0.55142,-0.0033 -1.09301,0.0092 -1.62212,0.03721 -2.24584,0.119075 -3.43363,0.29392 -5.48908,0.807185 -2.94904,0.736399 -6.04731,2.179828 -8.57932,3.99769 -3.45147,2.477998 -6.4313,5.786099 -8.82478,9.796817 -0.54031,0.905375 -1.46244,2.55901 -1.46244,2.622579 0,0.02114 -0.22082,0.487312 -0.49093,1.036114 -0.72796,1.479015 -1.64865,3.794826 -2.35386,5.920568 -2.62969,7.926848 -3.64918,17.065754 -2.86546,25.68422 0.85048,9.35262 3.56136,18.9541 8.21139,29.08297 1.46668,3.19478 4.59637,9.16649 4.73717,9.03873 0.0387,-0.0351 0.045,-0.0203 0.0145,0.0331 -0.084,0.1469 2.25152,4.07356 3.98993,6.70812 2.68577,4.07028 5.14968,7.36484 8.72609,11.66905 0.16261,0.19571 0.33685,0.33236 0.38705,0.30386 0.0502,-0.0285 0.0624,-0.02 0.0274,0.0186 -0.0854,0.0941 0.18992,0.39088 0.29973,0.32298 0.0496,-0.0306 0.0611,-0.0118 0.0264,0.0444 -0.0538,0.087 0.43375,0.70946 1.14773,1.46503 0.12365,0.13086 0.55875,0.6102 0.96635,1.06505 2.29425,2.56018 6.88715,7.14655 9.30744,9.29349 0.46567,0.41308 0.86607,0.77435 0.88935,0.80305 0.10323,0.12722 2.93998,2.58982 3.93671,3.41736 0.60537,0.5026 1.37639,1.14263 1.71308,1.42214 0.36217,0.30069 0.65274,0.48288 0.71158,0.44648 0.0596,-0.0368 0.0766,-0.025 0.0429,0.0295 -0.10337,0.16725 5.8816,4.81791 6.05906,4.70824 0.0529,-0.0327 0.0695,-0.0191 0.0382,0.0315 -0.0512,0.0829 0.60793,0.60034 2.51768,1.97662 0.41418,0.29847 0.92148,0.66801 1.12706,0.82114 1.91841,1.42892 7.92677,5.52159 11.0076,7.49774 3.74611,2.40289 8.38677,5.25257 10.56525,6.48849 0.1397,0.0793 0.88219,0.50809 1.65054,0.9524 0.76835,0.44432 1.75563,1.01207 2.19367,1.26193 0.43804,0.24987 0.79614,0.49239 0.7953,0.53899 -0.001,0.12168 -5.25107,2.75303 -7.77782,3.89847 -0.27636,0.12529 -0.86452,0.39794 -1.3069,0.60565 -0.44238,0.20772 -1.07983,0.49411 -1.41645,0.63614 -0.33663,0.142 -0.59764,0.28167 -0.57981,0.31057 0.0178,0.0289 -0.0496,0.0576 -0.14986,0.0636 -0.10031,0.006 -0.56321,0.18595 -1.02888,0.39946 -2.70039,1.23816 -9.52608,3.98134 -12.99662,5.22345 -0.81492,0.29166 -1.93872,0.69412 -2.49752,0.89401 -3.56974,1.27697 -11.58975,3.82049 -14.39344,4.56509 -0.23283,0.0618 -0.91858,0.25242 -1.52394,0.42323 -13.98825,3.94683 -31.11565,7.08866 -47.75161,8.75916 -30.76907,3.08968 -66.96574,1.05411 -105.36463,0.002 -3.51658,-0.47857 -379.586694,-14.08282 -382.89795,-15.2687 -0.75458,-0.11637 -1.3873,-0.21136 -1.4056,-0.21136 -0.0184,0 -0.0331,0 -0.0331,2.02055 v 2.02055 l 0.69867,0.092 c 0.36304,0.70604 378.50879,14.55465 379.95236,14.76448 17.28155,0.67334 34.16861,1.38044 47.58214,1.6593 33.95131,0.70583 72.38189,-0.50434 103.63192,-8.30285 9.43574,-2.35471 17.55815,-4.86902 27.05106,-8.37365 2.20447,-0.81386 7.6185,-3.00335 9.94823,-4.02301 0.60537,-0.26496 1.34838,-0.58617 1.65106,-0.71417 0.30269,-0.12798 0.72166,-0.31065 0.93121,-0.40566 0.20955,-0.095 1.18114,-0.53512 2.15904,-0.97823 2.85269,-1.29263 3.25773,-1.48788 7.65432,-3.68091 l 4.18372,-2.08618 1.06608,0.55449 c 0.58633,0.3052 1.80858,0.94699 2.71663,1.42575 4.60627,2.42861 13.55865,6.74568 17.82269,8.59482 0.51224,0.22214 1.15979,0.50787 1.43919,0.63511 3.73148,1.69924 13.79576,5.75669 18.37252,7.40678 0.5588,0.20146 1.79715,0.65191 2.75177,1.00097 4.16841,1.52414 10.47191,3.64294 15.36702,5.16558 7.2431,2.25298 14.33805,4.23702 22.14025,6.19135 36.86523,9.23415 78.46699,14.46656 124.24824,15.62747 1.9558,0.0496 3.91805,0.10024 4.36044,0.11214 0.44241,0.0118 1.72847,0.0288 2.85771,0.0388 l 2.05311,0.0176 v -1.94717 -1.94717 l -0.57155,-0.001 c -2.06031,-0.003 -12.13424,-0.27261 -17.4625,-0.46715 -25.78015,-0.94128 -51.08035,-3.27015 -72.72889,-6.69468 -1.04775,-0.16575 -2.13337,-0.33533 -2.41277,-0.37673 -0.2794,-0.0414 -1.97492,-0.32244 -3.76773,-0.62425 -19.03291,-3.20416 -37.62892,-7.52673 -54.18687,-12.59613 -1.37372,-0.42058 -2.7261,-0.83377 -3.0055,-0.91777 -2.91497,-0.87641 -10.77178,-3.51571 -14.56242,-4.89221 -1.02446,-0.37202 -2.4914,-0.90505 -3.25975,-1.18391 -0.76835,-0.27886 -1.73994,-0.64073 -2.15904,-0.8046 -3.67976,-1.43885 -5.22357,-2.00713 -5.31337,-1.95543 -0.0581,0.0334 -0.0761,0.0285 -0.0403,-0.0109 0.0715,-0.0786 0.0678,-0.0803 -2.85926,-1.26814 -1.1176,-0.45351 -2.4127,-0.98794 -2.87837,-1.18753 -0.46566,-0.19957 -1.58947,-0.67617 -2.49753,-1.05936 -1.44797,-0.61104 -4.47565,-1.93803 -5.84201,-2.56057 -3.76024,-1.7132 -4.27729,-1.95369 -6.25595,-2.90887 -0.90283,-0.43582 -1.65439,-0.7922 -1.67019,-0.7922 -0.1086,0 -8.84425,-4.41592 -9.33431,-4.71857 l -0.19947,-0.12351 0.24185,-0.14728 c 0.13313,-0.0809 0.47094,-0.27365 0.75034,-0.42839 4.20295,-2.32789 8.5108,-4.99715 12.43593,-7.70496 1.88973,-1.30366 5.53854,-4.00043 6.74429,-4.98471 0.2644,-0.21583 0.6802,-0.54495 0.92346,-0.73122 0.66294,-0.50763 2.35407,-1.87142 2.88303,-2.32492 0.25612,-0.21957 0.55747,-0.47221 0.66972,-0.56121 0.31957,-0.2534 2.6945,-2.28591 3.35225,-2.86907 0.32596,-0.28901 0.99262,-0.87997 1.48157,-1.31362 2.63231,-2.33455 5.38538,-4.95691 9.04285,-8.61343 2.02936,-2.0288 3.3041,-3.36446 3.2675,-3.42356 -0.0342,-0.0552 -0.0228,-0.0743 0.0264,-0.0439 0.16331,0.10094 6.87975,-7.20147 6.81715,-7.41195 -0.0128,-0.0431 0.0113,-0.0568 0.0538,-0.0305 0.0823,0.0509 0.57583,-0.5417 0.54053,-0.64905 -0.0115,-0.0353 0.01,-0.054 0.047,-0.0424 0.0573,0.0178 1.61048,-1.74168 2.30528,-2.61172 0.11513,-0.14416 0.50419,-0.61469 0.86507,-1.04542 0.36089,-0.43071 0.63149,-0.82351 0.60099,-0.87281 -0.0304,-0.0493 -0.0181,-0.0663 0.0274,-0.0382 0.11474,0.0709 1.4063,-1.52732 1.3317,-1.64796 -0.0344,-0.0556 -0.0225,-0.0734 0.0284,-0.0419 0.0486,0.03 0.1953,-0.0878 0.32609,-0.262 0.13076,-0.17418 0.26023,-0.33585 0.28783,-0.35915 0.17387,-0.14645 3.82495,-5.00059 4.80798,-6.39238 0.3289,-0.46567 0.67074,-0.94192 0.75964,-1.05833 0.48967,-0.64113 3.53035,-5.19042 4.26124,-6.37532 1.15869,-1.87845 1.63718,-2.66041 1.77147,-2.89543 0.0798,-0.1397 0.31532,-0.54011 0.52348,-0.88936 0.34037,-0.57106 0.78868,-1.3553 1.47536,-2.58226 1.29474,-2.31343 3.03102,-5.7202 3.99149,-7.83157 1.17633,-2.58588 1.36841,-3.0319 2.1363,-4.95318 5.25982,-13.16042 7.0601,-25.749203 5.37487,-37.592019 -0.91694,-6.443718 -3.06625,-12.37515 -6.08542,-16.795358 -0.84364,-1.235126 -0.80224,-1.176684 -1.35444,-1.905826 -0.90572,-1.195924 -2.56355,-2.957134 -2.70267,-2.871144 -0.0455,0.02815 -0.0595,0.01349 -0.031,-0.03255 0.0777,-0.125679 -0.66514,-0.822475 -0.79272,-0.743624 -0.0648,0.04003 -0.0845,0.03051 -0.0506,-0.02429 0.14955,-0.241985 -2.71523,-2.431463 -4.51652,-3.451984 -3.60375,-2.041703 -7.14702,-3.147129 -11.98015,-3.73724 -1.81192,-0.221162 -7.08411,-0.22212 -9.10177,-0.0016 -6.09763,0.666715 -11.1881,1.981361 -17.01808,4.395081 -1.40069,0.579913 -3.98964,1.783127 -4.86792,2.261878 -0.32597,0.17768 -0.93586,0.504626 -1.35496,0.727085 -2.11989,1.125239 -6.05662,3.625588 -7.88014,5.004345 -0.42259,0.319535 -1.11668,0.843293 -1.54254,1.164273 -0.42588,0.320987 -0.7505,0.622099 -0.7214,0.669208 0.0291,0.0471 0.0153,0.06244 -0.0305,0.03411 -0.0864,-0.05342 -0.73766,0.457197 -2.2412,1.757516 -2.33803,2.022017 -5.26413,4.988451 -7.26933,7.369574 -0.54214,0.643763 -0.8977,1.091751 -2.19056,2.759007 -1.14504,1.476644 -2.81815,4.024704 -3.98374,6.067329 -0.4318,0.756709 -0.79542,1.376143 -0.80822,1.376143 -0.0128,0 -0.26487,-0.409429 -0.56017,-0.910021 -1.13459,-1.923375 -3.34962,-5.085043 -4.9382,-7.048667 -3.0059,-3.715535 -6.54981,-7.288307 -10.72906,-10.816394 -0.44883,-0.378899 -0.83969,-0.665638 -0.86817,-0.637169 -0.0285,0.02847 -0.0517,0.01135 -0.0517,-0.03773 0,-0.08661 -0.56217,-0.561239 -1.69344,-1.430403 -0.30268,-0.232553 -0.79802,-0.613804 -1.10071,-0.846976 -3.0522,-2.351313 -7.51742,-5.239655 -10.87944,-7.037814 -2.71471,-1.451956 -6.83378,-3.257968 -7.08173,-3.104721 -0.0578,0.03574 -0.0763,0.02466 -0.0444,-0.02687 0.03,-0.04848 -0.0115,-0.10786 -0.0925,-0.132292 -0.081,-0.02442 -0.60443,-0.203023 -1.16323,-0.396875 -4.11995,-1.429245 -8.4742,-2.213319 -12.33413,-2.236555 z m 0.28112,4.22248 c 5.97278,0.05499 12.57969,1.915911 19.33422,5.546431 6.60401,3.549354 12.64905,8.030559 17.87074,13.247254 1.90952,1.907685 3.3179,3.439599 4.59352,4.997111 0.51106,0.624012 0.95522,1.108726 0.98702,1.076936 0.0322,-0.0318 0.0462,-0.01971 0.032,0.02687 -0.0411,0.135792 0.61116,0.979389 0.71003,0.918289 0.0507,-0.03136 0.0652,-0.01529 0.0331,0.03669 -0.0313,0.05059 0.20062,0.435367 0.51573,0.855244 1.78948,2.384476 3.42487,5.009134 4.94905,7.943186 0.9779,1.882489 1.27033,2.143919 2.39727,2.139921 0.83553,-0.0028 1.34982,-0.396843 1.78387,-1.366843 1.20349,-2.689489 3.4044,-6.450655 5.26789,-9.002551 1.02474,-1.403273 1.24105,-1.682038 2.16525,-2.791044 2.63324,-3.159803 5.20062,-5.699056 8.82737,-8.730216 1.56878,-1.311148 5.94643,-4.423933 7.37526,-5.244123 0.0822,-0.04722 0.66429,-0.39361 1.29294,-0.76998 1.82958,-1.095333 4.60167,-2.562831 6.26525,-3.316594 7.56616,-3.428196 14.33,-5.040469 21.12429,-5.035868 3.56965,0.0024 6.62809,0.423122 9.70794,1.33532 5.39683,1.598454 9.99764,5.070465 13.12529,9.905339 0.78641,1.21566 0.84428,1.308825 1.10485,1.777669 2.13414,3.83998 3.6744,8.557308 4.42298,13.546976 0.4524,3.015504 0.50898,3.895741 0.50798,7.916312 -10e-4,3.926221 -0.0586,4.898639 -0.46922,7.950425 -1.0275,7.636969 -3.62356,15.988139 -7.56078,24.320989 -0.58954,1.24772 -2.24881,4.56816 -2.74298,5.48959 -1.53683,2.86556 -4.39129,7.75612 -5.74849,9.8485 -0.29661,0.45729 -0.51386,0.87295 -0.48266,0.92345 0.0312,0.0507 0.0225,0.0713 -0.0196,0.0465 -1.18565,1.15323 -1.80231,3.04396 -2.89698,4.18889 -0.49233,0.79598 -1.61708,2.36545 -3.82613,5.34076 -2.0336,2.73901 -3.22283,4.25729 -5.26686,6.72414 -0.87112,1.05132 -1.56362,1.94438 -1.53892,1.98437 0.0247,0.0405 0.0128,0.0624 -0.0269,0.0496 -0.0706,-0.0228 -0.39709,0.32179 -1.42214,1.50172 -0.58959,0.67866 -3.43986,3.84244 -4.21369,4.67724 -1.04424,1.12648 -2.93091,3.05892 -4.6762,4.78885 -0.9779,0.9693 -1.7686,1.79773 -1.757,1.84123 0.0117,0.0435 -0.0103,0.0695 -0.0491,0.0579 -0.0597,-0.0179 -1.28872,1.07056 -2.16937,1.92133 -0.37072,0.35814 -1.85496,1.7113 -2.40967,2.19676 -0.26001,0.22757 -0.70459,0.62746 -0.98754,0.88884 -1.16338,1.07472 -5.2961,4.5672 -6.72414,5.68234 -2.09754,1.63794 -2.61267,2.0681 -2.56677,2.1425 0.0303,0.049 0.0102,0.059 -0.0475,0.0233 -0.0575,-0.0355 -0.2179,0.04 -0.37569,0.17725 -0.15138,0.13166 -0.5301,0.42565 -0.8418,0.65319 -0.31172,0.22754 -0.55031,0.44034 -0.53021,0.47284 0.02,0.0324 -0.0113,0.0589 -0.0698,0.0589 -0.0584,0 -0.54266,0.32425 -1.0759,0.72089 -0.53325,0.39664 -1.47245,1.08478 -2.0867,1.5291 -0.61425,0.44431 -1.09053,0.83702 -1.05833,0.87282 0.0322,0.0357 0.0206,0.0436 -0.0264,0.017 -0.0469,-0.0265 -0.4282,0.19518 -0.84698,0.49299 -3.34886,2.38152 -10.53413,6.95868 -13.88442,8.84442 -0.18627,0.10484 -0.83932,0.47091 -1.45108,0.81339 -0.61176,0.34249 -1.12651,0.6227 -1.14411,0.6227 -0.11031,0 -5.1864,-2.84918 -8.11527,-4.55528 -1.98015,-1.15346 -6.091,-3.63338 -7.86309,-4.74338 -0.90216,-0.56509 -1.67953,-1.00328 -1.72754,-0.97358 -0.048,0.0296 -0.0652,0.0179 -0.0382,-0.0258 0.027,-0.0437 -0.39581,-0.36146 -0.93948,-0.70642 -0.54367,-0.34495 -2.01692,-1.31196 -3.27422,-2.14871 -1.2573,-0.83675 -2.33389,-1.52187 -2.3921,-1.52187 -0.0582,-2.6e-4 -0.0876,-0.0183 -0.0656,-0.0403 0.022,-0.022 -0.48287,-0.40193 -1.12189,-0.84388 -1.56604,-1.08308 -3.84431,-2.705 -4.78834,-3.40909 -0.42462,-0.31669 -0.80737,-0.55432 -0.85059,-0.52762 -0.0432,0.0267 -0.0518,0.005 -0.0186,-0.0491 0.0332,-0.0537 0.0257,-0.0977 -0.0171,-0.0977 -0.0428,0 -0.2433,-0.13097 -0.44545,-0.29094 -0.20215,-0.15993 -0.40742,-0.268 -0.4563,-0.24029 -0.0489,0.0277 -0.0619,0.0205 -0.0289,-0.016 0.0762,-0.0845 -1.64188,-1.40067 -1.74511,-1.33687 -0.0423,0.0262 -0.0498,0.004 -0.0165,-0.0501 0.0332,-0.0537 0.0274,-0.0977 -0.0129,-0.0977 -0.0403,0 -0.18543,-0.0917 -0.32246,-0.20361 -0.13704,-0.11193 -0.85845,-0.68431 -1.60352,-1.27227 -0.74507,-0.58794 -1.71463,-1.36337 -2.15439,-1.72289 -0.43975,-0.35953 -0.83964,-0.64079 -0.88884,-0.62529 -0.0492,0.0156 -0.0619,5.3e-4 -0.0279,-0.0336 0.034,-0.034 -0.0665,-0.16095 -0.22325,-0.28215 -1.34431,-1.03913 -4.43331,-3.74381 -7.20369,-6.30711 -2.67607,-2.47604 -5.59644,-5.45081 -7.98918,-8.13749 -0.5806,-0.65193 -1.08747,-1.17587 -1.12654,-1.16427 -0.0391,0.0116 -0.0618,-0.0121 -0.0501,-0.0532 0.0116,-0.0411 -0.50044,-0.69823 -1.13791,-1.46038 -2.6188,-3.13101 -5.08264,-6.38386 -7.22437,-9.5374 -0.91173,-1.34245 -1.98799,-3.01342 -1.98799,-3.08612 l -1.31568,-2.05517 c -1.76933,-2.77439 -4.85041,-8.64396 -6.62234,-12.61525 -5.26542,-11.80101 -7.80882,-22.59638 -7.80882,-33.146817 0,-9.09582 1.86229,-17.283893 5.60224,-24.63002 1.88965,-3.711718 3.59847,-6.175399 5.82083,-8.393287 1.41047,-1.407626 2.64812,-2.377551 4.22403,-3.309874 3.64969,-2.159164 7.91188,-3.208983 12.55738,-3.166216 z"
       id="path884"
       inkscape:connector-curvature="0"
       sodipodi:nodetypes="sccscsccssccsccccccsccsccccccccccscccccccccscsccsscccssccccccccscccccscccccccsccccccsccccccccsccccccccccccccccccccccccccccccscccsccccccccccccccccccccscsccsccccccscscsccccccccccccccscccccccscccccccccccccccccscccccsccccsccsccccccccccccscccccsccccccccccccccsssccscc" />
  </g>
</svg>
